/* XPM */
static char * bitcoin32_regtest_xpm[] = {
"32 32 366 2",
"  	c None",
". 	c #FFD7C4",
"+ 	c #FFCAB2",
"@ 	c #FFC0A8",
"# 	c #FFC1A9",
"$ 	c #FFCBB2",
"% 	c #FFD5C4",
"& 	c #FFE9DC",
"* 	c #FFC3A7",
"= 	c #FF9265",
"- 	c #FF7338",
"; 	c #FF6C2D",
"> 	c #FF5D1E",
", 	c #FF4E08",
"' 	c #FF5E1F",
") 	c #FF6D31",
"! 	c #FF743C",
"~ 	c #FF9264",
"{ 	c #FFC0A6",
"] 	c #FFE7DA",
"^ 	c #FFBD9E",
"/ 	c #FF804C",
"( 	c #FF6122",
"_ 	c #FF5E18",
": 	c #FF510B",
"< 	c #FF4700",
"[ 	c #FF4600",
"} 	c #FF4300",
"| 	c #FF4800",
"1 	c #FF4A00",
"2 	c #FF5400",
"3 	c #FF610C",
"4 	c #FF6417",
"5 	c #FF8246",
"6 	c #FFB99D",
"7 	c #FFDBCA",
"8 	c #FF935B",
"9 	c #FF5610",
"0 	c #FF3F00",
"a 	c #FF4500",
"b 	c #FF3800",
"c 	c #FF3700",
"d 	c #FF4400",
"e 	c #FF4900",
"f 	c #FF3C00",
"g 	c #FF3D00",
"h 	c #FF4B00",
"i 	c #FF5C00",
"j 	c #FF9358",
"k 	c #FFD7C6",
"l 	c #FFCAAE",
"m 	c #FF7B35",
"n 	c #FF4D00",
"o 	c #FF3E00",
"p 	c #FF4C00",
"q 	c #FF5100",
"r 	c #FF5200",
"s 	c #FF5300",
"t 	c #FF7C2F",
"u 	c #FFC6A6",
"v 	c #FFC9B0",
"w 	c #FF742B",
"x 	c #FF5F19",
"y 	c #FF4200",
"z 	c #FF3B00",
"A 	c #FF6207",
"B 	c #FF7424",
"C 	c #FFC8A8",
"D 	c #FFDCC7",
"E 	c #FF6013",
"F 	c #FF3600",
"G 	c #FF4100",
"H 	c #FF4E00",
"I 	c #FF6203",
"J 	c #FF7B2E",
"K 	c #FFD8BF",
"L 	c #FF9559",
"M 	c #FF5000",
"N 	c #FF5007",
"O 	c #FF6305",
"P 	c #FC6800",
"Q 	c #F74F00",
"R 	c #F74400",
"S 	c #F84C00",
"T 	c #F63D00",
"U 	c #F74500",
"V 	c #F73E00",
"W 	c #FC4900",
"X 	c #FF5600",
"Y 	c #FF9253",
"Z 	c #FFBE97",
"` 	c #FF5A06",
" .	c #FF5B00",
"..	c #FF6708",
"+.	c #FF8940",
"@.	c #FA9C59",
"#.	c #F7AA79",
"$.	c #F1A77D",
"%.	c #E69265",
"&.	c #E47F4A",
"*.	c #DE5913",
"=.	c #E55500",
"-.	c #EF4700",
";.	c #F64B00",
">.	c #F94700",
",.	c #FF5A00",
"'.	c #FFB98F",
").	c #FFEBDC",
"!.	c #FF843E",
"~.	c #FF7E2D",
"{.	c #FFB887",
"].	c #E4AC94",
"^.	c #D56C3E",
"/.	c #CA3E00",
"(.	c #C83500",
"_.	c #E44300",
":.	c #F63C00",
"<.	c #FF8138",
"[.	c #FFE3D1",
"}.	c #FFC4A1",
"|.	c #FF6313",
"1.	c #FF8F49",
"2.	c #FFC5A1",
"3.	c #E4BBAF",
"4.	c #CA795D",
"5.	c #C73F00",
"6.	c #C63300",
"7.	c #CA3000",
"8.	c #F54D00",
"9.	c #F74800",
"0.	c #FF6409",
"a.	c #FFBE9B",
"b.	c #FF9455",
"c.	c #FF5F0B",
"d.	c #FF5A09",
"e.	c #FF7D34",
"f.	c #FFC7A5",
"g.	c #EABFAA",
"h.	c #BD6546",
"i.	c #C1470F",
"j.	c #C22500",
"k.	c #C73700",
"l.	c #EF4300",
"m.	c #FF6000",
"n.	c #FF914E",
"o.	c #FF7525",
"p.	c #FFB58F",
"q.	c #B04724",
"r.	c #B83300",
"s.	c #C32900",
"t.	c #F45000",
"u.	c #FA5600",
"v.	c #FF7520",
"w.	c #FFD8C0",
"x.	c #FF701C",
"y.	c #FF4F00",
"z.	c #FF4C02",
"A.	c #FF8748",
"B.	c #CC7451",
"C.	c #9D1F00",
"D.	c #C23A02",
"E.	c #CD4100",
"F.	c #F74B00",
"G.	c #FF6E16",
"H.	c #FFD1B6",
"I.	c #FFC9AD",
"J.	c #FF620A",
"K.	c #FF9864",
"L.	c #E18D67",
"M.	c #A32C02",
"N.	c #A32800",
"O.	c #C32600",
"P.	c #C62F00",
"Q.	c #E34200",
"R.	c #FD6200",
"S.	c #FFCAA3",
"T.	c #FFC3A0",
"U.	c #FF5002",
"V.	c #FF6223",
"W.	c #FFAA80",
"X.	c #EBA17E",
"Y.	c #BE4B21",
"Z.	c #9A1800",
"`.	c #BB3905",
" +	c #C52F00",
".+	c #F84900",
"++	c #F65500",
"@+	c #FFC197",
"#+	c #FF6320",
"$+	c #FFA983",
"%+	c #F1A47A",
"&+	c #CC521A",
"*+	c #A8350B",
"=+	c #C62C00",
"-+	c #EE4600",
";+	c #F85300",
">+	c #FFC096",
",+	c #FFCBA8",
"'+	c #FF6308",
")+	c #FF3A00",
"!+	c #FF976D",
"~+	c #F3945C",
"{+	c #C73800",
"]+	c #A02900",
"^+	c #9B1900",
"/+	c #C32D00",
"(+	c #DF3E00",
"_+	c #F86500",
":+	c #FFC9A3",
"<+	c #FFD7BB",
"[+	c #FF6F17",
"}+	c #FF8551",
"|+	c #F28240",
"1+	c #C52B00",
"2+	c #AB3406",
"3+	c #BE3901",
"4+	c #D63C00",
"5+	c #F97012",
"6+	c #FFCFB3",
"7+	c #FF611F",
"8+	c #FFB595",
"9+	c #FFB588",
"0+	c #EB5E0A",
"a+	c #A82A00",
"b+	c #9B1D00",
"c+	c #B83602",
"d+	c #D04400",
"e+	c #F9771C",
"f+	c #FF924F",
"g+	c #FF5E00",
"h+	c #FF5908",
"i+	c #FF7941",
"j+	c #FFBFAC",
"k+	c #FFCAA1",
"l+	c #FB7D28",
"m+	c #E15200",
"n+	c #AB2D00",
"o+	c #9F2500",
"p+	c #B42B00",
"q+	c #D8530D",
"r+	c #FB9249",
"s+	c #FFC39D",
"t+	c #FF8B56",
"u+	c #FFC0AF",
"v+	c #FFC2A1",
"w+	c #FF8F46",
"x+	c #F75200",
"y+	c #CD3300",
"z+	c #C33000",
"A+	c #A73002",
"B+	c #B32E00",
"C+	c #C83800",
"D+	c #DC5B15",
"E+	c #FAC295",
"F+	c #FFE3D6",
"G+	c #FF8336",
"H+	c #FF7C3A",
"I+	c #FFB592",
"J+	c #FFB68D",
"K+	c #FA5200",
"L+	c #F54900",
"M+	c #C63600",
"N+	c #C13C07",
"O+	c #EB7F3C",
"P+	c #FDE3CF",
"Q+	c #FEBC8E",
"R+	c #FF8849",
"S+	c #FF9A62",
"T+	c #FFAA7D",
"U+	c #FFAA7C",
"V+	c #FF9961",
"W+	c #FF8741",
"X+	c #FF6406",
"Y+	c #FF5D00",
"Z+	c #D93C00",
"`+	c #C03000",
" @	c #9E2400",
".@	c #C52E00",
"+@	c #CD4810",
"@@	c #FCB68C",
"#@	c #FD944E",
"$@	c #FF630B",
"%@	c #F04400",
"&@	c #C73400",
"*@	c #B0390B",
"=@	c #A52A00",
"-@	c #C94102",
";@	c #E1895F",
">@	c #FCD6C1",
",@	c #FB7D25",
"'@	c #FF6102",
")@	c #FC5400",
"!@	c #CD3A00",
"~@	c #C12E00",
"{@	c #C64F1E",
"]@	c #D77140",
"^@	c #FDD2BD",
"/@	c #FFC8A2",
"(@	c #FA7519",
"_@	c #FF6400",
":@	c #F64000",
"<@	c #CE3400",
"[@	c #A62400",
"}@	c #9F2800",
"|@	c #B44B24",
"1@	c #D56837",
"2@	c #EEC0AB",
"3@	c #FBC4A5",
"4@	c #FA7C27",
"5@	c #F75300",
"6@	c #FF5500",
"7@	c #F84600",
"8@	c #F54600",
"9@	c #F35200",
"0@	c #CD3D00",
"a@	c #C73100",
"b@	c #C53200",
"c@	c #B3380B",
"d@	c #9D2300",
"e@	c #A7330D",
"f@	c #D56F42",
"g@	c #EDBFAA",
"h@	c #F7D4C3",
"i@	c #F6914E",
"j@	c #F75C00",
"k@	c #F74C00",
"l@	c #F54300",
"m@	c #DA3D00",
"n@	c #C22400",
"o@	c #AF3100",
"p@	c #A02200",
"q@	c #AC3F19",
"r@	c #D98562",
"s@	c #F3D0C2",
"t@	c #EBB097",
"u@	c #E67D3D",
"v@	c #EC5F0B",
"w@	c #EE5E00",
"x@	c #F05300",
"y@	c #E74600",
"z@	c #CD3600",
"A@	c #C54004",
"B@	c #B2461C",
"C@	c #AF4A27",
"D@	c #BF6E4F",
"E@	c #E6AE96",
"F@	c #F7E3DB",
"G@	c #F6E3D6",
"H@	c #EBB6A1",
"I@	c #DE835D",
"J@	c #D56433",
"K@	c #D25E2A",
"L@	c #CF5115",
"M@	c #CA3E02",
"N@	c #C94E1A",
"O@	c #BF562F",
"P@	c #B75C3C",
"Q@	c #C77D61",
"R@	c #E2B1A3",
"S@	c #F8E0D1",
"T@	c #F0C9BB",
"U@	c #E9BFAE",
"V@	c #E1B4A2",
"W@	c #DDB3A5",
"X@	c #E3BCAE",
"Y@	c #E9C6BB",
"                          . + @ # $ %                           ",
"                  & * = - ; > , , ' ) ! ~ { ]                   ",
"                ^ / ( _ : < [ } } | 1 2 3 4 5 6                 ",
"            7 8 9 0 a b c c < } d e f f g h [ i j k             ",
"          l m n o , } a p q [ f f a r q < e s d q t u           ",
"        v w x } o b c y 0 f z r 2 f z o [ z z a | A B C         ",
"      D m E c F G b e 1 | q e z z < r < h H z a z z I J K       ",
"      L M d F N d b d f 1 G p O P Q R S T U V W X z | q Y       ",
"    Z ` G 0 G [ c [ |  ...+.@.#.$.%.&.*.=.-.;.T ;.>.d d ,.'.    ",
"  ).!.d r c c F < h r ~.{.            ].^./.(._.V V :.X d <.[.  ",
"  }.|.h [ F | G } s 1.2.                3.4.5.6.7.8.T 9.p 0.a.  ",
"  b.c.f a G a c d.e.f.                    g.h.i.j.k.l.9.:.m.n.  ",
"  o.r z n b } < 4 p.                        ].q.r.6.s.t.T u.v.  ",
"w.x.| z y.F z.o A.                            B.C.D.j.E.T F.G.H.",
"I.J.| e y c } e K.                            L.M.N.O.P.Q.;.R.S.",
"T.s 1 } z U.F V.W.                            X.Y.Z.`.j. +.+++@+",
"T.s | y z M F #+$+                            %+&+Z.*+j.=+-+;+>+",
",+'+e 1 d )+} | !+                            ~+{+]+^+/+(.(+_+:+",
"<+[+e f q z M g }+                            |+1+2+Z.3+j.4+5+6+",
"  v.s f y.g e 1 7+8+                        9+0+(.a+b+c+j.d+e+  ",
"  f+g+g [ < h z h+i+j+                    k+l+m+j.n+o+p+O.q+r+  ",
"  s+0.n | f H d [ q t+u+                v+w+x+y+z+A+Z.B+C+D+E+  ",
"  F+G+d X g z g | | s H+I+            J+J K+L+M+O.^+^+N+P.O+P+  ",
"    Q+,.d a a e f e 1 i |.R+S+T+U+V+W+X+Y+.+Z+j.`+ @ @.@+@@@    ",
"      #@q 1 z X | z a f h G p $@A H y n T %@O.&@*@Z.=@-@;@      ",
"      >@,@'@z z a f H h h q | z z e )@F.F.!@O.~@Z.^+{@]@^@      ",
"        /@(@_@e a z z [ o z f 2 2 V T :@<@j.O.[@}@|@1@2@        ",
"          3@4@5@U 2 e e r 6@7@T T 8@9@0@a@b@c@d@e@f@g@          ",
"            h@i@j@U S :.T T k@R l@m@j.j.n@o@p@q@r@s@            ",
"                t@u@v@w@x@y@(+z@a@&@&@A@B@C@D@E@F@              ",
"                  G@H@I@J@K@L@M@-@N@O@P@Q@R@S@                  ",
"                          T@U@V@W@X@Y@                          "};
