/* XPM */
static char * bitcoin32_unittest_xpm[] = {
"32 32 138 2",
"  	c None",
". 	c #9B9BA1",
"+ 	c #717C7F",
"@ 	c #586769",
"# 	c #46575B",
"$ 	c #485559",
"% 	c #546467",
"& 	c #4F585B",
"* 	c #7E8787",
"= 	c #8B8E92",
"- 	c #6F8285",
"; 	c #354C54",
"> 	c #395864",
", 	c #537D8E",
"' 	c #476A76",
") 	c #3E575E",
"! 	c #4D5D62",
"~ 	c #6A7171",
"{ 	c #939898",
"] 	c #5B6C71",
"^ 	c #4A6D72",
"/ 	c #547580",
"( 	c #516465",
"_ 	c #6C7173",
": 	c #797F85",
"< 	c #456167",
"[ 	c #566F7A",
"} 	c #545D5F",
"| 	c #6F7C82",
"1 	c #4B6D7A",
"2 	c #445357",
"3 	c #6F7C7F",
"4 	c #436671",
"5 	c #444F54",
"6 	c #717779",
"7 	c #466876",
"8 	c #50595B",
"9 	c #888D8D",
"0 	c #445D66",
"a 	c #788082",
"b 	c #516267",
"c 	c #637377",
"d 	c #85888A",
"e 	c #425D6B",
"f 	c #5F686E",
"g 	c #6B7377",
"h 	c #6D7272",
"i 	c #3C4547",
"j 	c #60686C",
"k 	c #5D6971",
"l 	c #444E55",
"m 	c #54575C",
"n 	c #4C5858",
"o 	c #697579",
"p 	c #334851",
"q 	c #495058",
"r 	c #5A5F64",
"s 	c #404C50",
"t 	c #909595",
"u 	c #334D5C",
"v 	c #5A676B",
"w 	c #3F4548",
"x 	c #697070",
"y 	c #5F6469",
"z 	c #416474",
"A 	c #717B80",
"B 	c #79797C",
"C 	c #404E52",
"D 	c #4C565B",
"E 	c #4F585D",
"F 	c #353E41",
"G 	c #778085",
"H 	c #485458",
"I 	c #363F42",
"J 	c #444E52",
"K 	c #4B565B",
"L 	c #313C44",
"M 	c #707579",
"N 	c #50575B",
"O 	c #6F757A",
"P 	c #33454E",
"Q 	c #4B5156",
"R 	c #808585",
"S 	c #405261",
"T 	c #48595D",
"U 	c #374C5E",
"V 	c #81868E",
"W 	c #34444C",
"X 	c #516062",
"Y 	c #7B8185",
"Z 	c #354855",
"` 	c #424D51",
" .	c #557079",
"..	c #576569",
"+.	c #7A8588",
"@.	c #314049",
"#.	c #6B7277",
"$.	c #727478",
"%.	c #4C646F",
"&.	c #506C73",
"*.	c #415259",
"=.	c #737C80",
"-.	c #9BA0A0",
";.	c #697982",
">.	c #39505D",
",.	c #5F6468",
"'.	c #4B545C",
").	c #4C6672",
"!.	c #3C4E56",
"~.	c #394A51",
"{.	c #37484E",
"].	c #364A4F",
"^.	c #3C4E5C",
"/.	c #3A5D70",
"(.	c #727274",
"_.	c #51616C",
":.	c #5D6264",
"<.	c #4A5153",
"[.	c #596062",
"}.	c #465057",
"|.	c #5C6467",
"1.	c #444E53",
"2.	c #5A5F63",
"3.	c #505659",
"4.	c #575C5E",
"5.	c #7F8085",
"6.	c #5E6A6A",
"7.	c #5F6666",
"8.	c #646569",
"9.	c #656D71",
"0.	c #6C7070",
"a.	c #5F6464",
"b.	c #717171",
"c.	c #4A5254",
"d.	c #6E7676",
"e.	c #707373",
"f.	c #464B4D",
"g.	c #777B7B",
"                        . + @ # $ % & *                         ",
"                  = - ; > ,           ' ) ! ~                   ",
"              { ] ^                         / ( _               ",
"            : <                                 [ }             ",
"          | 1                                       2           ",
"        3 4                                           5         ",
"      6 7                                               8       ",
"    9 0                                                   a     ",
"    b                                                     c     ",
"  d e                   f g         h i                     j   ",
"  k                   l                 m n                 o   ",
"  p                 q                     r s                   ",
"t u               v                         w                 x ",
"y z               A                         B C               D ",
"E                                             F               G ",
"H                                             I                 ",
"J                                             I                 ",
"K                                             L               M ",
"N                 O                           P               Q ",
"R S               T                         k U               V ",
"  W                 X                     Y Z                   ",
"  `                  ...                +.@.                #.  ",
"  $.%.                &.*.=.        -.;.>.                  ,.  ",
"    '.                    ).!.~.{.].^./.                        ",
"    (._.                                                  :.    ",
"      <.                                                [.      ",
"        }.                                            |.        ",
"          1.                                        2.          ",
"            3.                                    4.            ",
"              5.6.                              7.              ",
"                  8.9.                    0.a.                  ",
"                        b.c.d.    e.f.g.                        "};
