/* XPM */
static char * bitcoin64_unittest_xpm[] = {
"64 64 402 2",
"  	c None",
". 	c #E0E0E0",
"+ 	c #FFFFFF",
"@ 	c #CFD7D7",
"# 	c #7F8285",
"$ 	c #979797",
"% 	c #E2E2E8",
"& 	c #647982",
"* 	c #4B6269",
"= 	c #66858E",
"- 	c #709FA7",
"; 	c #7CA3AC",
"> 	c #7EA7B0",
", 	c #74A1AA",
"' 	c #6F96A1",
") 	c #63838B",
"! 	c #495D64",
"~ 	c #6F8288",
"{ 	c #BACCCF",
"] 	c #626769",
"^ 	c #8B9191",
"/ 	c #7C97A0",
"( 	c #3D575E",
"_ 	c #5E8F9D",
": 	c #659BAF",
"< 	c #71A6B5",
"[ 	c #6791A1",
"} 	c #435961",
"| 	c #94AAAD",
"1 	c #C1CCCF",
"2 	c #6F7377",
"3 	c #9D9D9D",
"4 	c #FAFAFA",
"5 	c #405158",
"6 	c #56828D",
"7 	c #659DAF",
"8 	c #6CA0AB",
"9 	c #68888D",
"0 	c #5B6769",
"a 	c #9AA6A6",
"b 	c #818686",
"c 	c #F8FFFF",
"d 	c #546D75",
"e 	c #6AA6B0",
"f 	c #84ADB2",
"g 	c #5E6C72",
"h 	c #7C8588",
"i 	c #8B8B8B",
"j 	c #4A6067",
"k 	c #7FABB6",
"l 	c #82A5AB",
"m 	c #5A686C",
"n 	c #5C6060",
"o 	c #9DB0BA",
"p 	c #6A95A2",
"q 	c #768B95",
"r 	c #5D6767",
"s 	c #3A4B54",
"t 	c #6798A9",
"u 	c #6E8491",
"v 	c #595F62",
"w 	c #8B9090",
"x 	c #3A525B",
"y 	c #5F94A8",
"z 	c #69808E",
"A 	c #596365",
"B 	c #919191",
"C 	c #385059",
"D 	c #609DB0",
"E 	c #647C87",
"F 	c #515B5F",
"G 	c #364D57",
"H 	c #5E9DB1",
"I 	c #5D7887",
"J 	c #4A5357",
"K 	c #91919B",
"L 	c #535D60",
"M 	c #647C8D",
"N 	c #585F61",
"O 	c #37494F",
"P 	c #629DB1",
"Q 	c #6B7E8B",
"R 	c #555A5C",
"S 	c #E1E5E5",
"T 	c #8B9DA6",
"U 	c #6E7D87",
"V 	c #767A7E",
"W 	c #D9D9DF",
"X 	c #668B98",
"Y 	c #6B767B",
"Z 	c #9B9B9B",
"` 	c #46575E",
" .	c #666A6C",
"..	c #CCCCCC",
"+.	c #CCDEE6",
"@.	c #7397A7",
"#.	c #787C87",
"$.	c #6C7377",
"%.	c #5C6467",
"&.	c #575D61",
"*.	c #5D666A",
"=.	c #6A7277",
"-.	c #64686C",
";.	c #7E8688",
">.	c #879090",
",.	c #6E7B82",
"'.	c #8D8D8D",
").	c #4E636B",
"!.	c #A3A8A8",
"~.	c #606569",
"{.	c #575B64",
"].	c #A0A8A8",
"^.	c #838787",
"/.	c #61676A",
"(.	c #565C5D",
"_.	c #6D7172",
":.	c #6E737A",
"<.	c #D3E2E9",
"[.	c #5F8997",
"}.	c #6E7175",
"|.	c #758285",
"1.	c #7A8383",
"2.	c #4A5053",
"3.	c #5B6367",
"4.	c #6E767A",
"5.	c #97979B",
"6.	c #9DA1A1",
"7.	c #38494F",
"8.	c #B7BCC6",
"9.	c #4C5257",
"0.	c #596062",
"a.	c #4F5858",
"b.	c #6B6F74",
"c.	c #6F7578",
"d.	c #D7DEE6",
"e.	c #4E6B7D",
"f.	c #A7AEB2",
"g.	c #646C6E",
"h.	c #767E83",
"i.	c #42484C",
"j.	c #4E5C5C",
"k.	c #7D8A8D",
"l.	c #A3B4BA",
"m.	c #567F95",
"n.	c #A8B1B7",
"o.	c #717A7E",
"p.	c #474F51",
"q.	c #6C777C",
"r.	c #A2A2A2",
"s.	c #5B6F79",
"t.	c #56879B",
"u.	c #535B5F",
"v.	c #646B6C",
"w.	c #51565A",
"x.	c #777F83",
"y.	c #737678",
"z.	c #909598",
"A.	c #354A52",
"B.	c #6D7479",
"C.	c #3E4446",
"D.	c #4A5B62",
"E.	c #696F73",
"F.	c #DEE9F1",
"G.	c #517186",
"H.	c #757F87",
"I.	c #797D82",
"J.	c #495257",
"K.	c #717E7F",
"L.	c #91A0AA",
"M.	c #568298",
"N.	c #656D71",
"O.	c #4B5156",
"P.	c #56676C",
"Q.	c #6E767B",
"R.	c #8C9090",
"S.	c #A1A1A1",
"T.	c #4D5D64",
"U.	c #535F61",
"V.	c #6E7979",
"W.	c #414D56",
"X.	c #737C85",
"Y.	c #6B6B6F",
"Z.	c #818386",
"`.	c #43575C",
" +	c #A5B0B8",
".+	c #374044",
"++	c #6A7173",
"@+	c #747777",
"#+	c #576C7A",
"$+	c #6C7479",
"%+	c #646F74",
"&+	c #576E7B",
"*+	c #767B80",
"=+	c #828588",
"-+	c #5E7A86",
";+	c #5C6469",
">+	c #5F676C",
",+	c #566A77",
"'+	c #7F8189",
")+	c #7F8588",
"!+	c #6E8A98",
"~+	c #555E64",
"{+	c #565F62",
"]+	c #50626E",
"^+	c #7A7D80",
"/+	c #7C7F82",
"(+	c #738996",
"_+	c #5F6A70",
":+	c #646C71",
"<+	c #4D606C",
"[+	c #747A7D",
"}+	c #64696C",
"|+	c #65828E",
"1+	c #6E8284",
"2+	c #777F88",
"3+	c #546B73",
"4+	c #666C6E",
"5+	c #616567",
"6+	c #5E757F",
"7+	c #6B7C80",
"8+	c #8897A0",
"9+	c #526A7A",
"0+	c #5B5F61",
"a+	c #52626C",
"b+	c #748185",
"c+	c #778085",
"d+	c #697985",
"e+	c #617C8E",
"f+	c #62686A",
"g+	c #465159",
"h+	c #6B8288",
"i+	c #59666A",
"j+	c #9AA1A1",
"k+	c #2E3A44",
"l+	c #878D91",
"m+	c #545D64",
"n+	c #596D70",
"o+	c #FDFFFF",
"p+	c #4A5A6C",
"q+	c #B7B7C0",
"r+	c #62696F",
"s+	c #5F798D",
"t+	c #6A7B82",
"u+	c #758080",
"v+	c #C1C5C5",
"w+	c #91A3AD",
"x+	c #496B84",
"y+	c #757A7A",
"z+	c #6C7173",
"A+	c #4D6571",
"B+	c #4E5F61",
"C+	c #3F545F",
"D+	c #5D6267",
"E+	c #898E8E",
"F+	c #3A4850",
"G+	c #64787C",
"H+	c #525F61",
"I+	c #D0D9DC",
"J+	c #5D6F79",
"K+	c #436480",
"L+	c #92969A",
"M+	c #5F6C74",
"N+	c #5D757A",
"O+	c #6E777F",
"P+	c #EBEFF5",
"Q+	c #516B80",
"R+	c #748181",
"S+	c #5A7989",
"T+	c #50656A",
"U+	c #687578",
"V+	c #EFF5F5",
"W+	c #4D6677",
"X+	c #666B6F",
"Y+	c #76777B",
"Z+	c #576770",
"`+	c #53666C",
" @	c #505B5D",
".@	c #F5FDFF",
"+@	c #4E697A",
"@@	c #595D60",
"#@	c #637A83",
"$@	c #546267",
"%@	c #777B80",
"&@	c #62777F",
"*@	c #506F84",
"=@	c #878D8D",
"-@	c #B7BEBE",
";@	c #53585A",
">@	c #6C7C89",
",@	c #668B9B",
"'@	c #566771",
")@	c #82949A",
"!@	c #676E72",
"~@	c #ECF3F3",
"{@	c #CCE6F1",
"]@	c #425C6C",
"^@	c #4D738A",
"/@	c #5B5D62",
"(@	c #989898",
"_@	c #535A62",
":@	c #71A1B0",
"<@	c #4E6E78",
"[@	c #445B62",
"}@	c #BAD3DE",
"|@	c #E2F9FF",
"1@	c #E9FDFF",
"2@	c #C1DEED",
"3@	c #33464F",
"4@	c #556E7D",
"5@	c #53788E",
"6@	c #9A9C9C",
"7@	c #575C5E",
"8@	c #697587",
"9@	c #6A9BAB",
"0@	c #6793A5",
"a@	c #638999",
"b@	c #608592",
"c@	c #618996",
"d@	c #6590A2",
"e@	c #719DB0",
"f@	c #9B9BA1",
"g@	c #555A60",
"h@	c #A6A6B0",
"i@	c #A5AAAA",
"j@	c #767979",
"k@	c #616B73",
"l@	c #66686A",
"m@	c #63666C",
"n@	c #606C77",
"o@	c #65676B",
"p@	c #5D6466",
"q@	c #56676F",
"r@	c #7E7F83",
"s@	c #B4B4BD",
"t@	c #565D5F",
"u@	c #55666E",
"v@	c #85888D",
"w@	c #9EA3A7",
"x@	c #52595D",
"y@	c #4E5D65",
"z@	c #787B80",
"A@	c #969F9F",
"B@	c #4F575B",
"C@	c #4D5C65",
"D@	c #797C7F",
"E@	c #A8A8A8",
"F@	c #575B61",
"G@	c #5A666E",
"H@	c #858A8D",
"I@	c #9A9E9E",
"J@	c #595D5F",
"K@	c #5F7073",
"L@	c #808285",
"M@	c #646668",
"N@	c #626A6E",
"O@	c #636769",
"P@	c #B0B0B0",
"Q@	c #89898D",
"R@	c #646A6A",
"S@	c #657377",
"T@	c #BDBDC2",
"U@	c #616565",
"V@	c #C2C2C2",
"W@	c #67696D",
"X@	c #6B7276",
"Y@	c #72787C",
"Z@	c #A4A4AE",
"`@	c #616365",
" #	c #A7A7A7",
".#	c #9EA2A2",
"+#	c #6A7174",
"@#	c #717277",
"##	c #808989",
"$#	c #9BA1A1",
"%#	c #616366",
"&#	c #9C9C9C",
"*#	c #A9A9B1",
"=#	c #767A7C",
"-#	c #7E8186",
";#	c #6C7575",
">#	c #8B9195",
",#	c #888E93",
"'#	c #8D9595",
")#	c #808484",
"!#	c #6B6D6D",
"~#	c #5F6468",
"{#	c #828383",
"]#	c #6A7072",
"^#	c #6D7677",
"/#	c #969D9D",
"(#	c #818B8B",
"_#	c #707378",
":#	c #4D5151",
"<#	c #8A8D8D",
"[#	c #777A7A",
"}#	c #727476",
"|#	c #797C7C",
"1#	c #72777B",
"2#	c #777A7D",
"3#	c #5F6666",
"4#	c #66686D",
"5#	c #878C8D",
"                                                      . + + + + + + @ # $                                                       ",
"                                              % + + + & * = - ; > , ' ) ! ~ { ] ^                                               ",
"                                        + + + / ( _ :                       < [ } | 1 2 3                                       ",
"                                  4 + + 5 6 7                                       8 9 0 a b                                   ",
"                              c + + d e                                                   f g h i                               ",
"                            + + j k                                                           l m n                             ",
"                          + o p                                                                   q r                           ",
"                        + s t                                                                       u v w                       ",
"                      + x y                                                                           z A B                     ",
"                    + C D                                                                               E F                     ",
"                  + G H                                                                                   I J K                 ",
"                + C H                                                                                       z L w               ",
"              + x D                                                                                           M N               ",
"            + O P                                                                                               Q R             ",
"          S T t                                                                                                   U V           ",
"        W + X                                                                                                       Y Z         ",
"        + `                                                                                                            .        ",
"      ..+.@.                                            #.$.%.&.*.=.-.;.>.                                            ,.'.      ",
"      + ).                                        !.~.{.].            ^./.(._.                                          :.      ",
"      <.[.                                      }.|.                        1.2.3.                                      4.5.    ",
"    6.7.                                    8.9.                                0.a.                                    b.c.    ",
"    d.e.                                  f.g.                                    h.i.j.                                  k.    ",
"    l.m.                                n.g.                                        o.p.                                  q.Z   ",
"  r.s.t.                                u.                                            v.w.                                x.y.  ",
"  z.A.                                B.                                                C.D.                                E.  ",
"  F.G.                                H.                                                I.J.                                K.  ",
"  L.M.                              N.                                                    O.P.                              Q.R.",
"S.T.                                U.                                                    V.W.                              X.Y.",
"Z.`.                                 +                                                      .+                                ++",
"@+#+                              $+                                                        %+&+                              *+",
"=+-+                              ;+                                                        >+,+                              '+",
")+!+                              ~+                                                        {+]+                              ^+",
"/+(+                              _+                                                        :+<+                              [+",
"}+|+                              1+                                                        2+3+                              4+",
"5+6+                              7+                                                        8+9+                              0+",
"y.a+                              b+c+                                                      d+e+                              f+",
"^.g+                              h+i+                                                    j+k+                                l+",
"  m+                                n+                                                    o+p+                                q+",
"  r+s+                              t+u+                                                v+w+x+                              y+  ",
"  z+A+                                B+                                                + C+                                D+  ",
"  E+F+                                G+H+                                            I+J+K+                                L+  ",
"    M+                                  N+O+                                        P++ Q+                                R+    ",
"    }+S+                                  T+U+                                    V++ W+                                  X+    ",
"    Y+Z+                                    `+ @                                .@+ +@                                    @@    ",
"      O.                                      #@$@%@                        V++ &@*@                                    =@-@    ",
"      ;@>@                                      ,@'@)@!@                ~@+ {@]@^@                                      /@      ",
"      (@_@                                          :@<@[@}@|@1@+ + + 2@3@4@5@                                          6@      ",
"        7@8@                                              9@0@a@b@c@d@e@                                              f+        ",
"        f@g@                                                                                                        h@i@        ",
"          j@k@                                                                                                      l@          ",
"            m@n@                                                                                                  o@            ",
"              p@q@                                                                                              r@s@            ",
"                t@u@                                                                                          v@w@              ",
"                  x@y@                                                                                      z@A@                ",
"                    B@C@                                                                                  D@E@                  ",
"                      F@G@                                                                              H@I@                    ",
"                        J@K@                                                                          L@S.                      ",
"                          M@N@                                                                      O@P@                        ",
"                            Q@R@S@                                                              T@U@                            ",
"                              V@W@X@Y@                                                      Z@`@ #                              ",
"                                  .#+#@###                                              $#%#&#                                  ",
"                                      *#=#-#;#>#,#                              '#)#!#~#-@                                      ",
"                                              {#]#^#V /#6.              Z (#_#:#<#                                              ",
"                                                    r.[#}#j@|#1#2#W@3#4#5#q+                                                    "};
