/* XPM */
static char * bitcoin16_unittest_xpm[] = {
"16 16 59 1",
" 	c None",
".	c #6E7275",
"+	c #4D6268",
"@	c #4A6A71",
"#	c #4E6973",
"$	c #576F70",
"%	c #6A7476",
"&	c #51585A",
"*	c #39565F",
"=	c #3B6B6F",
"-	c #435964",
";	c #565F62",
">	c #49565B",
",	c #3F6B74",
"'	c #425155",
")	c #575B5D",
"!	c #3A6173",
"~	c #5F666C",
"{	c #385562",
"]	c #52595D",
"^	c #595F64",
"/	c #5B686E",
"(	c #6D7575",
"_	c #335D6D",
":	c #505B60",
"<	c #5A5F64",
"[	c #3B4D55",
"}	c #616B6E",
"|	c #4B5A64",
"1	c #515960",
"2	c #455961",
"3	c #4C5359",
"4	c #5C6262",
"5	c #455A61",
"6	c #626F76",
"7	c #6A7676",
"8	c #283940",
"9	c #525F63",
"0	c #66787E",
"a	c #414F56",
"b	c #686D70",
"c	c #5C6C6C",
"d	c #6A6E76",
"e	c #334A5B",
"f	c #575D60",
"g	c #394D5A",
"h	c #566875",
"i	c #5E6971",
"j	c #6A6F77",
"k	c #47565D",
"l	c #515458",
"m	c #2C4B5D",
"n	c #4F5358",
"o	c #424C53",
"p	c #4E5557",
"q	c #5D6466",
"r	c #555959",
"s	c #636A6A",
"t	c #575B5B",
"     .+@#$%     ",
"   &*=     -;   ",
"  >,         '  ",
" )!           ~ ",
" {     ]^/      ",
"(_   :    <[   }",
"|          1    ",
"2   3      4    ",
"5   6      78   ",
"9   0      a    ",
"b    c    de   f",
" g    hijke     ",
" l      m     n ",
"  o          p  ",
"   q        r   ",
"     s    t     "};
