/* XPM */
static char * bitcoin16_testnet_xpm[] = {
"16 16 142 2",
"  	c None",
". 	c #D1F3F9",
"+ 	c #77DDF9",
"@ 	c #4AD6FB",
"# 	c #48DBFF",
"$ 	c #75E5FF",
"% 	c #D1F5FF",
"& 	c #D3F3FB",
"* 	c #28CAF5",
"= 	c #00C2F7",
"- 	c #00C9FF",
"; 	c #00C8FF",
"> 	c #009AE0",
", 	c #008DDD",
"' 	c #0099DF",
") 	c #27B1E8",
"! 	c #CFF6FE",
"~ 	c #A7E5FC",
"{ 	c #02C0F5",
"] 	c #00C5F9",
"^ 	c #0094DF",
"/ 	c #0095E0",
"( 	c #0087D5",
"_ 	c #007ACA",
": 	c #0073C8",
"< 	c #0088D5",
"[ 	c #009CE2",
"} 	c #A3DCF5",
"| 	c #D6EDF8",
"1 	c #00B4F3",
"2 	c #00B7F3",
"3 	c #00CDFF",
"4 	c #009AE2",
"5 	c #0096DC",
"6 	c #007ECB",
"7 	c #0075C5",
"8 	c #006DC2",
"9 	c #0076C6",
"0 	c #0287CF",
"a 	c #CDEAFB",
"b 	c #25BDF2",
"c 	c #00BEF5",
"d 	c #00C1F8",
"e 	c #00CAFF",
"f 	c #089CDF",
"g 	c #71B7E1",
"h 	c #76ADC3",
"i 	c #15719E",
"j 	c #006CB9",
"k 	c #0068BD",
"l 	c #0080CC",
"m 	c #2598D7",
"n 	c #CFEEF7",
"o 	c #00B1F2",
"p 	c #07A3E4",
"q 	c #156F97",
"r 	c #006493",
"s 	c #005EB8",
"t 	c #007BC9",
"u 	c #CAE4F9",
"v 	c #76C8EE",
"w 	c #00A8F1",
"x 	c #00BAF3",
"y 	c #00CFFF",
"z 	c #71C6EE",
"A 	c #77A9BD",
"B 	c #0C6890",
"C 	c #005E90",
"D 	c #71B9E4",
"E 	c #4AB6E8",
"F 	c #00AEF2",
"G 	c #00C3FB",
"H 	c #015674",
"I 	c #006191",
"J 	c #006ABA",
"K 	c #48A2D9",
"L 	c #49B0E2",
"M 	c #0099E1",
"N 	c #00ADF3",
"O 	c #00BCF3",
"P 	c #005C81",
"Q 	c #005A82",
"R 	c #006594",
"S 	c #4A9DD4",
"T 	c #73BCE4",
"U 	c #00ABF1",
"V 	c #00B9F5",
"W 	c #6FE2FD",
"X 	c #6FB0DD",
"Y 	c #0B6C94",
"Z 	c #004F6D",
"` 	c #005688",
" .	c #71B0DD",
"..	c #CBE8F7",
"+.	c #0085D3",
"@.	c #07B8F2",
"#.	c #0A78C1",
"$.	c #00628D",
"%.	c #004868",
"&.	c #016794",
"*.	c #C6E1F2",
"=.	c #2696D5",
"-.	c #008AD5",
";.	c #0098E1",
">.	c #06B5F2",
",.	c #6ED5F8",
"'.	c #6DC2EA",
").	c #087CC7",
"!.	c #006595",
"~.	c #00587D",
"{.	c #0E6381",
"].	c #3083AB",
"^.	c #D0E6F3",
"/.	c #0186CE",
"(.	c #0084D1",
"_.	c #0078C8",
":.	c #006BBD",
"<.	c #106F9A",
"[.	c #CCE2EF",
"}.	c #A3CDE9",
"|.	c #0475C2",
"1.	c #0080CE",
"2.	c #0078CA",
"3.	c #0074C4",
"4.	c #0063BB",
"5.	c #0E6384",
"6.	c #16647F",
"7.	c #A5CAD8",
"8.	c #D0E0E9",
"9.	c #2789C7",
"0.	c #006EBE",
"a.	c #006BBE",
"b.	c #006597",
"c.	c #055D7D",
"d.	c #367A90",
"e.	c #CDE2E9",
"f.	c #CEE1E8",
"g.	c #75ACC5",
"h.	c #4F95B3",
"i.	c #5391A8",
"j.	c #78A5B6",
"k.	c #CCDFE4",
"          . + @ # $ %           ",
"      & * = - ; > , ' ) !       ",
"    ~ { ] - ^ / ( _ : < [ }     ",
"  | 1 2 3 4 5 6 7 7 8 9 : 0 a   ",
"  b c d e f g     h i j k l m   ",
"n o 2 3 p             q r s t u ",
"v w x y z             A B C s D ",
"E F 1 G                 H I J K ",
"L M N O                 P Q R S ",
"T , U V W             X Y Z `  .",
"..+., o @.            #.$.%.&.*.",
"  =.-./ ;.>.,.    '.).!.~.{.].  ",
"  ^./.: (.^ > -.6 _.:.I %.<.[.  ",
"    }.|.1.: 2.3.k 4.` 5.6.7.    ",
"      8.9.0.s a.b.` c.d.e.      ",
"          f.g.h.i.j.k.          "};
