/* XPM */
static char * bitcoin32_testnet_xpm[] = {
"32 32 447 2",
"  	c None",
". 	c #C2F0FB",
"+ 	c #AFEBFC",
"@ 	c #A3E9FA",
"# 	c #A4EAFB",
"$ 	c #AFEDFF",
"% 	c #C0F2FE",
"& 	c #DCF2FB",
"* 	c #A4E8FC",
"= 	c #5FD7F7",
"- 	c #31CCF6",
"; 	c #25CDFA",
"> 	c #11D2FF",
", 	c #00D0FF",
"' 	c #11D4FF",
") 	c #26D7FF",
"! 	c #31D9FF",
"~ 	c #5CE0FF",
"{ 	c #A1EEFF",
"] 	c #D8F8FF",
"^ 	c #9CE2F8",
"/ 	c #45D1F6",
"( 	c #18C7F4",
"_ 	c #10C7F9",
": 	c #00CFFF",
"< 	c #00CDFF",
"[ 	c #00CCFF",
"} 	c #00C5FD",
"| 	c #00B1F2",
"1 	c #00A7EB",
"2 	c #00A8E9",
"3 	c #0FAFEC",
"4 	c #16B6ED",
"5 	c #43CCF7",
"6 	c #96EBFF",
"7 	c #C8F0FC",
"8 	c #5AD0F8",
"9 	c #07C3F5",
"0 	c #00BBF4",
"a 	c #00C3F8",
"b 	c #00C9FF",
"c 	c #00B7F5",
"d 	c #0094DF",
"e 	c #0091DF",
"f 	c #0096DF",
"g 	c #008DDD",
"h 	c #0097DF",
"i 	c #0092DF",
"j 	c #07A0E3",
"k 	c #5BC4EE",
"l 	c #C2F0FC",
"m 	c #ADE7FB",
"n 	c #35C4F6",
"o 	c #00BEF5",
"p 	c #00BAF3",
"q 	c #00C7F9",
"r 	c #00CBFF",
"s 	c #00CAFF",
"t 	c #00A1E7",
"u 	c #0091DE",
"v 	c #0093DC",
"w 	c #008DDA",
"x 	c #0088D3",
"y 	c #0089D6",
"z 	c #0097DD",
"A 	c #009AE0",
"B 	c #36B1E8",
"C 	c #A8DFF5",
"D 	c #AEE7F9",
"E 	c #2BC1F5",
"F 	c #12C4F6",
"G 	c #00BCF3",
"H 	c #00C3FD",
"I 	c #0090DE",
"J 	c #008FDC",
"K 	c #0092DA",
"L 	c #0085D0",
"M 	c #0074C9",
"N 	c #0073C8",
"O 	c #0076C8",
"P 	c #007ACA",
"Q 	c #0074C7",
"R 	c #0080CD",
"S 	c #109FE0",
"T 	c #2BADE6",
"U 	c #AADFF5",
"V 	c #C7EAF9",
"W 	c #0FBEF5",
"X 	c #00B7F3",
"Y 	c #0097E0",
"Z 	c #007DCD",
"` 	c #007CCA",
" .	c #007ECE",
"..	c #0077C7",
"+.	c #0078C8",
"@.	c #1193D7",
"#.	c #35B0E7",
"$.	c #C1E6F7",
"%.	c #5BCBF6",
"&.	c #00B2F1",
"*.	c #00B9F3",
"=.	c #00C5F9",
"-.	c #0099E2",
";.	c #008FD8",
">.	c #0079C9",
",.	c #158BCE",
"'.	c #1680CB",
").	c #006CBF",
"!.	c #0064BB",
"~.	c #006CBE",
"{.	c #005EB8",
"].	c #0066BB",
"^.	c #005FB9",
"/.	c #006DBF",
"(.	c #007CCC",
"_.	c #0082CD",
":.	c #59BBE8",
"<.	c #9AD8F4",
"[.	c #05B7F3",
"}.	c #00ADF0",
"|.	c #00BAF4",
"1.	c #00C8FF",
"2.	c #00B7F6",
"3.	c #079BDE",
"4.	c #1890D4",
"5.	c #4CA6DA",
"6.	c #67AADA",
"7.	c #81B8DB",
"8.	c #83B8D6",
"9.	c #6BA7C7",
"0.	c #5199BF",
"a.	c #1E7DAF",
"b.	c #0E75B3",
"c.	c #0067B7",
"d.	c #0068BD",
"e.	c #0078CA",
"f.	c #078AD0",
"g.	c #92D3F1",
"h.	c #DDEEF9",
"i.	c #42BDEF",
"j.	c #00ACF2",
"k.	c #0097E2",
"l.	c #3AA0DA",
"m.	c #90C5E9",
"n.	c #95BECE",
"o.	c #428DAE",
"p.	c #066A97",
"q.	c #006292",
"r.	c #0067AD",
"s.	c #0060B7",
"t.	c #007ECB",
"u.	c #42A6DA",
"v.	c #D1EDF9",
"w.	c #A3DAF3",
"x.	c #14B4ED",
"y.	c #00AFF2",
"z.	c #00B3F2",
"A.	c #00C1F6",
"B.	c #009BE1",
"C.	c #53B0E2",
"D.	c #A7D3EC",
"E.	c #ADCAD2",
"F.	c #5C96AA",
"G.	c #076895",
"H.	c #006090",
"I.	c #006092",
"J.	c #006DBD",
"K.	c #0069BC",
"L.	c #1691D2",
"M.	c #9ED3EC",
"N.	c #5ABEEB",
"O.	c #0CB4F0",
"P.	c #00A8F0",
"Q.	c #00B5F3",
"R.	c #00C2F7",
"S.	c #06BCF6",
"T.	c #3AB2E6",
"U.	c #A9D5EE",
"V.	c #ACC9D8",
"W.	c #46859B",
"X.	c #156C94",
"Y.	c #005688",
"Z.	c #006392",
"`.	c #0067B4",
" +	c #0E8CD2",
".+	c #58AFDF",
"++	c #2CAEE7",
"@+	c #00B0EF",
"#+	c #00A8F1",
"$+	c #00B7F4",
"%+	c #00C0F7",
"&+	c #92D2ED",
"*+	c #246F88",
"=+	c #005F87",
"-+	c #00598B",
";+	c #0073C3",
">+	c #2D9BD8",
",+	c #C2E5F7",
"'+	c #23AAE6",
")+	c #00A8EB",
"!+	c #00B8F4",
"~+	c #49C4F1",
"{+	c #5291AA",
"]+	c #004F6D",
"^+	c #06678F",
"/+	c #05699B",
"(+	c #006BBD",
"_+	c #2593D2",
":+	c #B8DEF3",
"<+	c #AEDEF2",
"[+	c #11A4E3",
"}+	c #00AEF2",
"|+	c #00AEF1",
"1+	c #00CEFF",
"2+	c #64CDF2",
"3+	c #6AA6C1",
"4+	c #035876",
"5+	c #005474",
"6+	c #005789",
"7+	c #005F8E",
"8+	c #0067AB",
"9+	c #1382C8",
"0+	c #AAD5F0",
"a+	c #A3D5EE",
"b+	c #00ABF1",
"c+	c #00BEF6",
"d+	c #16D4FF",
"e+	c #7EDBF9",
"f+	c #81B6CF",
"g+	c #227492",
"h+	c #004868",
"i+	c #08658A",
"j+	c #005C8E",
"k+	c #0069BE",
"l+	c #0071C1",
"m+	c #9DCFED",
"n+	c #A4D4ED",
"o+	c #00AAF0",
"p+	c #00B9F5",
"q+	c #17CDFD",
"r+	c #7EE2FD",
"s+	c #80B6D4",
"t+	c #20779F",
"u+	c #0C5E7C",
"v+	c #005D8D",
"w+	c #0067B5",
"x+	c #0073C0",
"y+	c #9CCEEC",
"z+	c #ADD8F1",
"A+	c #11A0E1",
"B+	c #0095E0",
"C+	c #009FE8",
"D+	c #00BEF3",
"E+	c #64E1FF",
"F+	c #65A9D1",
"G+	c #006592",
"H+	c #005273",
"I+	c #004969",
"J+	c #005E8B",
"K+	c #0066A7",
"L+	c #157EC7",
"M+	c #AAD2ED",
"N+	c #BFE0F4",
"O+	c #249CDB",
"P+	c #00AFF1",
"Q+	c #00B5F4",
"R+	c #4AD6FB",
"S+	c #4B9BCA",
"T+	c #005C8C",
"U+	c #085D7E",
"V+	c #06658D",
"W+	c #00659F",
"X+	c #2688CB",
"Y+	c #B6D8ED",
"Z+	c #009CE2",
"`+	c #00ADF3",
" @	c #17C6F5",
".@	c #90E7FE",
"+@	c #8FC6E6",
"@@	c #197EBA",
"#@	c #005679",
"$@	c #004A6B",
"%@	c #056287",
"&@	c #086C9E",
"*@	c #2F8CCD",
"=@	c #59B0E0",
"-@	c #0D92D5",
";@	c #0096DE",
">@	c #06BAF4",
",@	c #3ACEF6",
"'@	c #A4EEFB",
")@	c #A7D4F1",
"!@	c #3993D0",
"~@	c #0D73AF",
"{@	c #00597C",
"]@	c #005270",
"^@	c #005B80",
"/@	c #1877A9",
"(@	c #58A3D7",
"_@	c #A3D0EB",
":@	c #0086D4",
"<@	c #009BE4",
"[@	c #00A9EF",
"}@	c #52D1F7",
"|@	c #A7EDF9",
"1@	c #A3DAF1",
"2@	c #53A8DC",
"3@	c #0072BF",
"4@	c #006395",
"5@	c #04597A",
"6@	c #005A82",
"7@	c #006493",
"8@	c #207CAE",
"9@	c #A0C7E7",
"0@	c #D6EBF4",
"a@	c #42A4DB",
"b@	c #008BD6",
"c@	c #008EDE",
"d@	c #00A0E6",
"e@	c #00ADF1",
"f@	c #00B1F3",
"g@	c #39C5F4",
"h@	c #8FDFF8",
"i@	c #8FD1EE",
"j@	c #38A1D8",
"k@	c #0073C1",
"l@	c #0069BB",
"m@	c #006291",
"n@	c #0A698F",
"o@	c #4895C5",
"p@	c #D3E5F4",
"q@	c #97C6E7",
"r@	c #0091DC",
"s@	c #05AAEC",
"t@	c #4AC5F2",
"u@	c #63CCF4",
"v@	c #7ED3F3",
"w@	c #7ED0F1",
"x@	c #64C3EB",
"y@	c #49B0E2",
"z@	c #1590D3",
"A@	c #077DCA",
"B@	c #0065A1",
"C@	c #00608A",
"D@	c #00516F",
"E@	c #005E8D",
"F@	c #15749C",
"G@	c #92C4E2",
"H@	c #5BA6D8",
"I@	c #007BCB",
"J@	c #008AD5",
"K@	c #0090DB",
"L@	c #0092E0",
"M@	c #0092DD",
"N@	c #0098E0",
"O@	c #13A4E3",
"P@	c #119BDC",
"Q@	c #0077CA",
"R@	c #0071C3",
"S@	c #0064B6",
"T@	c #006191",
"U@	c #0D6283",
"V@	c #005676",
"W@	c #096A97",
"X@	c #63A2C0",
"Y@	c #C3E0ED",
"Z@	c #3892D1",
"`@	c #118ED2",
" #	c #0082CF",
".#	c #0083D0",
"+#	c #0080D3",
"@#	c #0085D2",
"##	c #0071C4",
"$#	c #0067BE",
"%#	c #006797",
"&#	c #22779A",
"*#	c #458EB1",
"=#	c #BEDCEB",
"-#	c #AAD1EC",
";#	c #2C8BCD",
">#	c #1384CC",
",#	c #0081CF",
"'#	c #0079C7",
")#	c #0061B9",
"!#	c #006196",
"~#	c #005472",
"{#	c #25708C",
"]#	c #3B89AC",
"^#	c #ACCDDC",
"/#	c #A9D2E7",
"(#	c #3892CF",
"_#	c #0070C0",
":#	c #0078C5",
"<#	c #0072C5",
"[#	c #0075C7",
"}#	c #0067BC",
"|#	c #006EBE",
"1#	c #026998",
"2#	c #00628F",
"3#	c #0C6484",
"4#	c #00506E",
"5#	c #0C5F7A",
"6#	c #468FAF",
"7#	c #ACCCDB",
"8#	c #C4DDE8",
"9#	c #5BA3D3",
"0#	c #0978C3",
"a#	c #0064B9",
"b#	c #0066A2",
"c#	c #005887",
"d#	c #005A80",
"e#	c #196782",
"f#	c #639FB8",
"g#	c #C1DAE4",
"h#	c #98C2D4",
"i#	c #4893C1",
"j#	c #1A7FBB",
"k#	c #137ABD",
"l#	c #0070BB",
"m#	c #0067B0",
"n#	c #006296",
"o#	c #006491",
"p#	c #0A6994",
"q#	c #1E6B89",
"r#	c #276F88",
"s#	c #508AA0",
"t#	c #97BFD0",
"u#	c #D9E9ED",
"v#	c #D8E5EE",
"w#	c #A1C7D6",
"x#	c #5FA0BB",
"y#	c #3788AB",
"z#	c #2F82A7",
"A#	c #1C76A1",
"B#	c #076B96",
"C#	c #1E769B",
"D#	c #307B97",
"E#	c #3C7D94",
"F#	c #6196AA",
"G#	c #A0C3CD",
"H#	c #D1E3EE",
"I#	c #BAD6E1",
"J#	c #AECCD8",
"K#	c #A2C2CF",
"L#	c #A3C1CB",
"M#	c #AEC9D3",
"N#	c #BAD3DA",
"                          . + @ # $ %                           ",
"                  & * = - ; > , , ' ) ! ~ { ]                   ",
"                ^ / ( _ : < [ < } | 1 2 3 4 5 6                 ",
"            7 8 9 0 a b b b c d e f g g g h i j k l             ",
"          m n o p q < r s t i g g u v w x y z e A B C           ",
"        D E F G o b b H I g J K L M N O P N Q P R S T U         ",
"      V n W X X s b r Y d f Z N N `  ...+. .Q P N Q @.#.$.      ",
"      %.&.*.X =.< b -.g ;.>.R ,.'.).!.~.{.].^./.R N (._.:.      ",
"    <.[.}.0 |.1.b 2.d 3.4.5.6.7.8.9.0.a.b.c.d.{.d.d.+.e.f.g.    ",
"  h.i.j.X X X r [ k.A l.m.            n.o.p.q.r.^.^.s.t.>.u.v.  ",
"  w.x.y.z.X A.r } B.C.D.                E.F.G.H.I.J.{.K.+.L.M.  ",
"  N.O.P.Q.|.R.b S.T.U.                    V.W.X.Y.Z.`.K.s. +.+  ",
"  ++@+#+$+*.%+< 4 &+                        n.*+=+H.-+J.{.;+>+  ",
",+'+)+#+!+X R.r ~+                            {+]+^+Y./+{.(+_+:+",
"<+[+t }+|+X G 1+2+                            3+4+5+6+7+8+d.9+0+",
"a+B.k.b+#+c+X d+e+                            f+g+h+i+Y.j+k+l+m+",
"n+B.d o+#+p+X q+r+                            s+t+h+u+Y.v+w+x+y+",
"z+A+B+C+j.o+0 D+E+                            F+G+H+I+J+q.K+L+M+",
"N+O+f g P+#+Q+|.R+                            S+T+U+h+V+Y.W+X+Y+",
"  >+B.g Z+o+`+z. @.@                        +@@@G+#@$@%@Y.&@*@  ",
"  =@-@g ;@k.y.#+>@,@'@                    )@!@~@Y.{@]@^@6+/@(@  ",
"  _@L.:@d g <@[@|+z.}@|@                1@2@3@4@v+5@h+6@7@8@9@  ",
"  0@a@>.b@g J c@d@e@f@g@h@            i@j@k@l@m@6+I+I+n@7+o@p@  ",
"    q@f.e.Z r@B+g B+k.s@x.t@u@v@w@x@y@z@A@k+B@Y.C@D@D@E@F@G@    ",
"      H@_.I@N J@K@J L@g h M@N@O@P@ .Q@R@{.S@6+T@U@h+V@W@X@      ",
"      Y@Z@`@Q N P M  #.#+#@#(.N N P ##$#(+%#6+J+h+I+&#*#=#      ",
"        -#;#>#>.P Q N P O N M ,#'#^.{.)#!#Y.6+5+~#{#]#^#        ",
"          /#(#_#].:#R@<#O [#}#{.{.].|#1#2#2#3#4#5#6#7#          ",
"            8#9#0#].~.s.{.{.k+!.a#b#Y.Y.c#d#]@e#f#g#            ",
"                h#i#j#k#l#m#K+n#2#T@o#p#q#r#s#t#u#              ",
"                  v#w#x#y#z#A#B#W@C#D#E#F#G#H#                  ",
"                          I#J#K#L#M#N#                          "};
